# xmcd
#
# Track frame offsets:
#	150
#	17987
#	32612
#	54487
#	80420
#	99095
#	118050
#	134000
#	145135
#	168087
#	186120
#
# Disc length: 2700 seconds
# Revision: 3
# Processed by: cddbd v1.5.2PL0 Copyright (c) Steve Scherf et al.
# Submitted via: dBpowerAMP V12.0
#
DISCID=8c0a8a0b
DTITLE=Pepe Ahlqvist and H.A.R.P. - Back To The River
DYEAR=1993
DGENRE=Blues
TTITLE0=Hard Time
TTITLE1=Back To The River
TTITLE2=Fly Like A Bird
TTITLE3=No Man's Land
TTITLE4=Hold On
TTITLE5=People Change
TTITLE6=My Girl
TTITLE7=Funky Rhythm
TTITLE8=Don't Walk Away
TTITLE9=Lock on the door
TTITLE10=Burn Burn Burn
EXTD=
EXTT0=
EXTT1=
EXTT2=
EXTT3=
EXTT4=
EXTT5=
EXTT6=
EXTT7=
EXTT8=
EXTT9=
EXTT10=
PLAYORDER=
